{
    "asset" : {
        "generator" : "Khronos glTF Blender I/O v1.1.46",
        "version" : "2.0"
    },
    "scene" : 0,
    "scenes" : [
        {
            "name" : "Scene",
            "nodes" : [
                0
            ]
        }
    ],
    "nodes" : [
        {
            "mesh" : 0,
            "name" : "Cube.005",
            "rotation" : [
                0.7071067690849304,
                0,
                0,
                0.7071067690849304
            ],
            "scale" : [
                1,
                1,
                1.25
            ],
            "translation" : [
                0,
                1.6354637145996094,
                -0.044519901275634766
            ]
        }
    ],
    "materials" : [
        {
            "doubleSided" : true,
            "emissiveFactor" : [
                0,
                0,
                0
            ],
            "name" : "dungeon-ground",
            "pbrMetallicRoughness" : {
                "baseColorTexture" : {
                    "index" : 0,
                    "texCoord" : 0
                },
                "metallicFactor" : 0,
                "roughnessFactor" : 1
            }
        },
        {
            "doubleSided" : true,
            "emissiveFactor" : [
                0,
                0,
                0
            ],
            "name" : "dungeon-bricks",
            "pbrMetallicRoughness" : {
                "baseColorTexture" : {
                    "index" : 1,
                    "texCoord" : 0
                },
                "metallicFactor" : 0,
                "roughnessFactor" : 1
            }
        }
    ],
    "meshes" : [
        {
            "name" : "Cube.005",
            "primitives" : [
                {
                    "attributes" : {
                        "POSITION" : 0,
                        "NORMAL" : 1,
                        "TEXCOORD_0" : 2
                    },
                    "indices" : 3,
                    "material" : 0
                },
                {
                    "attributes" : {
                        "POSITION" : 4,
                        "NORMAL" : 5,
                        "TEXCOORD_0" : 6
                    },
                    "indices" : 7,
                    "material" : 1
                }
            ]
        }
    ],
    "textures" : [
        {
            "sampler" : 0,
            "source" : 0
        },
        {
            "sampler" : 1,
            "source" : 1
        }
    ],
    "images" : [
        {
            "bufferView" : 4,
            "mimeType" : "image/png",
            "name" : "dungeon-ground"
        },
        {
            "bufferView" : 9,
            "mimeType" : "image/png",
            "name" : "dungeon-bricks"
        }
    ],
    "accessors" : [
        {
            "bufferView" : 0,
            "componentType" : 5126,
            "count" : 8,
            "max" : [
                1,
                0.05292618274688721,
                1.318983793258667
            ],
            "min" : [
                -1,
                -0.07438242435455322,
                1.299213171005249
            ],
            "type" : "VEC3"
        },
        {
            "bufferView" : 1,
            "componentType" : 5126,
            "count" : 8,
            "type" : "VEC3"
        },
        {
            "bufferView" : 2,
            "componentType" : 5126,
            "count" : 8,
            "type" : "VEC2"
        },
        {
            "bufferView" : 3,
            "componentType" : 5123,
            "count" : 12,
            "type" : "SCALAR"
        },
        {
            "bufferView" : 5,
            "componentType" : 5126,
            "count" : 216,
            "max" : [
                1,
                0.05292618274688721,
                1.318983793258667
            ],
            "min" : [
                -1,
                -0.07438254356384277,
                -1.093751311302185
            ],
            "type" : "VEC3"
        },
        {
            "bufferView" : 6,
            "componentType" : 5126,
            "count" : 216,
            "type" : "VEC3"
        },
        {
            "bufferView" : 7,
            "componentType" : 5126,
            "count" : 216,
            "type" : "VEC2"
        },
        {
            "bufferView" : 8,
            "componentType" : 5123,
            "count" : 360,
            "type" : "SCALAR"
        }
    ],
    "bufferViews" : [
        {
            "buffer" : 0,
            "byteLength" : 96,
            "byteOffset" : 0
        },
        {
            "buffer" : 0,
            "byteLength" : 96,
            "byteOffset" : 96
        },
        {
            "buffer" : 0,
            "byteLength" : 64,
            "byteOffset" : 192
        },
        {
            "buffer" : 0,
            "byteLength" : 24,
            "byteOffset" : 256
        },
        {
            "buffer" : 0,
            "byteLength" : 7588,
            "byteOffset" : 280
        },
        {
            "buffer" : 0,
            "byteLength" : 2592,
            "byteOffset" : 7868
        },
        {
            "buffer" : 0,
            "byteLength" : 2592,
            "byteOffset" : 10460
        },
        {
            "buffer" : 0,
            "byteLength" : 1728,
            "byteOffset" : 13052
        },
        {
            "buffer" : 0,
            "byteLength" : 720,
            "byteOffset" : 14780
        },
        {
            "buffer" : 0,
            "byteLength" : 10914,
            "byteOffset" : 15500
        }
    ],
    "samplers" : [
        {
            "magFilter" : 9728,
            "minFilter" : 9984
        },
        {
            "magFilter" : 9728,
            "minFilter" : 9984
        }
    ],
    "buffers" : [
        {
            "byteLength" : 26416,
            "uri" : "data:application/octet-stream;base64,"
        }
    ]
}
