{
    "asset" : {
        "generator" : "Khronos glTF Blender I/O v1.1.46",
        "version" : "2.0"
    },
    "scene" : 0,
    "scenes" : [
        {
            "name" : "Scene",
            "nodes" : [
                0
            ]
        }
    ],
    "nodes" : [
        {
            "mesh" : 0,
            "name" : "Cube.001",
            "rotation" : [
                0.7071067690849304,
                0,
                0,
                0.7071067690849304
            ],
            "scale" : [
                1,
                1,
                1.25
            ],
            "translation" : [
                -0.09420174360275269,
                1.7083766460418701,
                -0.08766156435012817
            ]
        }
    ],
    "materials" : [
        {
            "doubleSided" : true,
            "emissiveFactor" : [
                0,
                0,
                0
            ],
            "name" : "dungeon-ground.001",
            "pbrMetallicRoughness" : {
                "baseColorTexture" : {
                    "index" : 0,
                    "texCoord" : 0
                },
                "metallicFactor" : 0,
                "roughnessFactor" : 1
            }
        },
        {
            "doubleSided" : true,
            "emissiveFactor" : [
                0,
                0,
                0
            ],
            "name" : "dungeon-bricks.001",
            "pbrMetallicRoughness" : {
                "baseColorTexture" : {
                    "index" : 1,
                    "texCoord" : 0
                },
                "metallicFactor" : 0,
                "roughnessFactor" : 1
            }
        },
        {
            "doubleSided" : true,
            "emissiveFactor" : [
                0,
                0,
                0
            ],
            "name" : "Material",
            "pbrMetallicRoughness" : {
                "baseColorTexture" : {
                    "index" : 2,
                    "texCoord" : 0
                },
                "metallicFactor" : 0,
                "roughnessFactor" : 0.5
            }
        }
    ],
    "meshes" : [
        {
            "name" : "Cube.001",
            "primitives" : [
                {
                    "attributes" : {
                        "POSITION" : 0,
                        "NORMAL" : 1,
                        "TEXCOORD_0" : 2
                    },
                    "indices" : 3,
                    "material" : 0
                },
                {
                    "attributes" : {
                        "POSITION" : 4,
                        "NORMAL" : 5,
                        "TEXCOORD_0" : 6
                    },
                    "indices" : 7,
                    "material" : 1
                },
                {
                    "attributes" : {
                        "POSITION" : 8,
                        "NORMAL" : 9,
                        "TEXCOORD_0" : 10
                    },
                    "indices" : 11,
                    "material" : 2
                }
            ]
        }
    ],
    "textures" : [
        {
            "sampler" : 0,
            "source" : 0
        },
        {
            "sampler" : 1,
            "source" : 1
        },
        {
            "sampler" : 2,
            "source" : 2
        }
    ],
    "images" : [
        {
            "bufferView" : 4,
            "mimeType" : "image/png",
            "name" : "dungeon-ground"
        },
        {
            "bufferView" : 9,
            "mimeType" : "image/png",
            "name" : "dungeon-bricks"
        },
        {
            "bufferView" : 14,
            "mimeType" : "image/png",
            "name" : "dungeon-rock"
        }
    ],
    "accessors" : [
        {
            "bufferView" : 0,
            "componentType" : 5126,
            "count" : 4,
            "max" : [
                1.0942018032073975,
                1.087661623954773,
                1.366701364517212
            ],
            "min" : [
                -0.9074568748474121,
                -0.9140406847000122,
                1.366701364517212
            ],
            "type" : "VEC3"
        },
        {
            "bufferView" : 1,
            "componentType" : 5126,
            "count" : 4,
            "type" : "VEC3"
        },
        {
            "bufferView" : 2,
            "componentType" : 5126,
            "count" : 4,
            "type" : "VEC2"
        },
        {
            "bufferView" : 3,
            "componentType" : 5123,
            "count" : 6,
            "type" : "SCALAR"
        },
        {
            "bufferView" : 5,
            "componentType" : 5126,
            "count" : 219,
            "max" : [
                1.0942018032073975,
                1.0822761058807373,
                1.3645788431167603
            ],
            "min" : [
                -0.9456766247749329,
                -0.9396278858184814,
                -1.0354211330413818
            ],
            "type" : "VEC3"
        },
        {
            "bufferView" : 6,
            "componentType" : 5126,
            "count" : 219,
            "type" : "VEC3"
        },
        {
            "bufferView" : 7,
            "componentType" : 5126,
            "count" : 219,
            "type" : "VEC2"
        },
        {
            "bufferView" : 8,
            "componentType" : 5123,
            "count" : 327,
            "type" : "SCALAR"
        },
        {
            "bufferView" : 10,
            "componentType" : 5126,
            "count" : 45,
            "max" : [
                -0.27099907398223877,
                -0.2829248309135437,
                0.4205072522163391
            ],
            "min" : [
                -0.9456766247749329,
                -0.9396278858184814,
                -0.9245951175689697
            ],
            "type" : "VEC3"
        },
        {
            "bufferView" : 11,
            "componentType" : 5126,
            "count" : 45,
            "type" : "VEC3"
        },
        {
            "bufferView" : 12,
            "componentType" : 5126,
            "count" : 45,
            "type" : "VEC2"
        },
        {
            "bufferView" : 13,
            "componentType" : 5123,
            "count" : 75,
            "type" : "SCALAR"
        }
    ],
    "bufferViews" : [
        {
            "buffer" : 0,
            "byteLength" : 48,
            "byteOffset" : 0
        },
        {
            "buffer" : 0,
            "byteLength" : 48,
            "byteOffset" : 48
        },
        {
            "buffer" : 0,
            "byteLength" : 32,
            "byteOffset" : 96
        },
        {
            "buffer" : 0,
            "byteLength" : 12,
            "byteOffset" : 128
        },
        {
            "buffer" : 0,
            "byteLength" : 7588,
            "byteOffset" : 140
        },
        {
            "buffer" : 0,
            "byteLength" : 2628,
            "byteOffset" : 7728
        },
        {
            "buffer" : 0,
            "byteLength" : 2628,
            "byteOffset" : 10356
        },
        {
            "buffer" : 0,
            "byteLength" : 1752,
            "byteOffset" : 12984
        },
        {
            "buffer" : 0,
            "byteLength" : 654,
            "byteOffset" : 14736
        },
        {
            "buffer" : 0,
            "byteLength" : 10914,
            "byteOffset" : 15392
        },
        {
            "buffer" : 0,
            "byteLength" : 540,
            "byteOffset" : 26308
        },
        {
            "buffer" : 0,
            "byteLength" : 540,
            "byteOffset" : 26848
        },
        {
            "buffer" : 0,
            "byteLength" : 360,
            "byteOffset" : 27388
        },
        {
            "buffer" : 0,
            "byteLength" : 150,
            "byteOffset" : 27748
        },
        {
            "buffer" : 0,
            "byteLength" : 6910,
            "byteOffset" : 27900
        }
    ],
    "samplers" : [
        {
            "magFilter" : 9728,
            "minFilter" : 9984
        },
        {
            "magFilter" : 9728,
            "minFilter" : 9984
        },
        {
            "magFilter" : 9728,
            "minFilter" : 9984
        }
    ],
    "buffers" : [
        {
            "byteLength" : 34812,
            "uri" : "data:application/octet-stream;base64,"
        }
    ]
}
