{
    "asset" : {
        "generator" : "Khronos glTF Blender I/O v1.1.46",
        "version" : "2.0"
    },
    "scene" : 0,
    "scenes" : [
        {
            "name" : "Scene",
            "nodes" : [
                0
            ]
        }
    ],
    "nodes" : [
        {
            "mesh" : 0,
            "name" : "Plane",
            "scale" : [
                0.6998027563095093,
                1,
                0.6998027563095093
            ],
            "translation" : [
                0,
                0.04999999701976776,
                0
            ]
        }
    ],
    "materials" : [
        {
            "doubleSided" : true,
            "name" : "reflective-water",
            "pbrMetallicRoughness" : {}
        }
    ],
    "meshes" : [
        {
            "name" : "Plane",
            "primitives" : [
                {
                    "attributes" : {
                        "POSITION" : 0,
                        "NORMAL" : 1,
                        "TEXCOORD_0" : 2
                    },
                    "indices" : 3,
                    "material" : 0
                }
            ]
        }
    ],
    "accessors" : [
        {
            "bufferView" : 0,
            "componentType" : 5126,
            "count" : 78,
            "max" : [
                1.056573510169983,
                -0.0015685827238485217,
                1.5793224573135376
            ],
            "min" : [
                -1.3754993677139282,
                -0.14421750605106354,
                -0.9919006824493408
            ],
            "type" : "VEC3"
        },
        {
            "bufferView" : 1,
            "componentType" : 5126,
            "count" : 78,
            "type" : "VEC3"
        },
        {
            "bufferView" : 2,
            "componentType" : 5126,
            "count" : 78,
            "type" : "VEC2"
        },
        {
            "bufferView" : 3,
            "componentType" : 5123,
            "count" : 102,
            "type" : "SCALAR"
        }
    ],
    "bufferViews" : [
        {
            "buffer" : 0,
            "byteLength" : 936,
            "byteOffset" : 0
        },
        {
            "buffer" : 0,
            "byteLength" : 936,
            "byteOffset" : 936
        },
        {
            "buffer" : 0,
            "byteLength" : 624,
            "byteOffset" : 1872
        },
        {
            "buffer" : 0,
            "byteLength" : 204,
            "byteOffset" : 2496
        }
    ],
    "buffers" : [
        {
            "byteLength" : 2700,
            "uri" : "data:application/octet-stream;base64,"
        }
    ]
}
