{
    "asset" : {
        "generator" : "Khronos glTF Blender I/O v1.1.46",
        "version" : "2.0"
    },
    "scene" : 0,
    "scenes" : [
        {
            "name" : "Scene",
            "nodes" : [
                0
            ]
        }
    ],
    "nodes" : [
        {
            "mesh" : 0,
            "name" : "Icosphere",
            "scale" : [
                0.125,
                0.125,
                0.125
            ]
        }
    ],
    "materials" : [
        {
            "doubleSided" : true,
            "emissiveFactor" : [
                0,
                0,
                0
            ],
            "name" : "wood",
            "pbrMetallicRoughness" : {
                "baseColorTexture" : {
                    "index" : 0,
                    "texCoord" : 0
                },
                "metallicFactor" : 0,
                "roughnessFactor" : 1
            }
        },
        {
            "doubleSided" : true,
            "emissiveFactor" : [
                1,
                1,
                1
            ],
            "emissiveTexture" : {
                "index" : 1,
                "texCoord" : 0
            },
            "name" : "fire",
            "pbrMetallicRoughness" : {
                "baseColorTexture" : {
                    "index" : 2,
                    "texCoord" : 0
                },
                "metallicFactor" : 0,
                "roughnessFactor" : 0.5
            }
        }
    ],
    "meshes" : [
        {
            "name" : "Icosphere",
            "primitives" : [
                {
                    "attributes" : {
                        "POSITION" : 0,
                        "NORMAL" : 1,
                        "TEXCOORD_0" : 2
                    },
                    "indices" : 3,
                    "material" : 0
                },
                {
                    "attributes" : {
                        "POSITION" : 4,
                        "NORMAL" : 5,
                        "TEXCOORD_0" : 6
                    },
                    "indices" : 7,
                    "material" : 1
                }
            ]
        }
    ],
    "textures" : [
        {
            "sampler" : 0,
            "source" : 0
        },
        {
            "sampler" : 1,
            "source" : 1
        },
        {
            "sampler" : 2,
            "source" : 2
        }
    ],
    "images" : [
        {
            "bufferView" : 4,
            "mimeType" : "image/png",
            "name" : "wood"
        },
        {
            "bufferView" : 9,
            "mimeType" : "image/png",
            "name" : "fire-emission"
        },
        {
            "bufferView" : 10,
            "mimeType" : "image/png",
            "name" : "fire"
        }
    ],
    "accessors" : [
        {
            "bufferView" : 0,
            "componentType" : 5126,
            "count" : 69,
            "max" : [
                0.40554967522621155,
                1.7465132474899292,
                0.4283127784729004
            ],
            "min" : [
                -0.43739157915115356,
                -3.812612295150757,
                -0.38388925790786743
            ],
            "type" : "VEC3"
        },
        {
            "bufferView" : 1,
            "componentType" : 5126,
            "count" : 69,
            "type" : "VEC3"
        },
        {
            "bufferView" : 2,
            "componentType" : 5126,
            "count" : 69,
            "type" : "VEC2"
        },
        {
            "bufferView" : 3,
            "componentType" : 5123,
            "count" : 69,
            "type" : "SCALAR"
        },
        {
            "bufferView" : 5,
            "componentType" : 5126,
            "count" : 81,
            "max" : [
                0.6051590442657471,
                2.9358162879943848,
                0.5846256613731384
            ],
            "min" : [
                -0.5457125902175903,
                1.4931799173355103,
                -0.5872204303741455
            ],
            "type" : "VEC3"
        },
        {
            "bufferView" : 6,
            "componentType" : 5126,
            "count" : 81,
            "type" : "VEC3"
        },
        {
            "bufferView" : 7,
            "componentType" : 5126,
            "count" : 81,
            "type" : "VEC2"
        },
        {
            "bufferView" : 8,
            "componentType" : 5123,
            "count" : 81,
            "type" : "SCALAR"
        }
    ],
    "bufferViews" : [
        {
            "buffer" : 0,
            "byteLength" : 828,
            "byteOffset" : 0
        },
        {
            "buffer" : 0,
            "byteLength" : 828,
            "byteOffset" : 828
        },
        {
            "buffer" : 0,
            "byteLength" : 552,
            "byteOffset" : 1656
        },
        {
            "buffer" : 0,
            "byteLength" : 138,
            "byteOffset" : 2208
        },
        {
            "buffer" : 0,
            "byteLength" : 6139,
            "byteOffset" : 2348
        },
        {
            "buffer" : 0,
            "byteLength" : 972,
            "byteOffset" : 8488
        },
        {
            "buffer" : 0,
            "byteLength" : 972,
            "byteOffset" : 9460
        },
        {
            "buffer" : 0,
            "byteLength" : 648,
            "byteOffset" : 10432
        },
        {
            "buffer" : 0,
            "byteLength" : 162,
            "byteOffset" : 11080
        },
        {
            "buffer" : 0,
            "byteLength" : 9216,
            "byteOffset" : 11244
        },
        {
            "buffer" : 0,
            "byteLength" : 8896,
            "byteOffset" : 20460
        }
    ],
    "samplers" : [
        {
            "magFilter" : 9728,
            "minFilter" : 9984
        },
        {
            "magFilter" : 9728,
            "minFilter" : 9984
        },
        {
            "magFilter" : 9728,
            "minFilter" : 9984
        }
    ],
    "buffers" : [
        {
            "byteLength" : 29356,
            "uri" : "data:application/octet-stream;base64,"
        }
    ]
}
